<svg xmlns:xlink="http://www.w3.org/1999/xlink" xmlns="http://www.w3.org/2000/svg" width="429" height="82.25251469756189" viewBox="0 0 289.8 55.56358685163971" class="looka-1j8o68f"><defs id="SvgjsDefs5089"><linearGradient id="SvgjsLinearGradient5094"><stop id="SvgjsStop5095" stop-color="#2d388a" offset="0"></stop><stop id="SvgjsStop5096" stop-color="#00aeef" offset="1"></stop></linearGradient><linearGradient id="SvgjsLinearGradient5094"><stop id="SvgjsStop5095" stop-color="#2d388a" offset="0"></stop><stop id="SvgjsStop5096" stop-color="#00aeef" offset="1"></stop></linearGradient><linearGradient id="SvgjsLinearGradient5094"><stop id="SvgjsStop5095" stop-color="#2d388a" offset="0"></stop><stop id="SvgjsStop5096" stop-color="#00aeef" offset="1"></stop></linearGradient><linearGradient id="SvgjsLinearGradient5094"><stop id="SvgjsStop5095" stop-color="#2d388a" offset="0"></stop><stop id="SvgjsStop5096" stop-color="#00aeef" offset="1"></stop></linearGradient><linearGradient id="SvgjsLinearGradient5094"><stop id="SvgjsStop5095" stop-color="#2d388a" offset="0"></stop><stop id="SvgjsStop5096" stop-color="#00aeef" offset="1"></stop></linearGradient><linearGradient id="SvgjsLinearGradient5094"><stop id="SvgjsStop5095" stop-color="#2d388a" offset="0"></stop><stop id="SvgjsStop5096" stop-color="#00aeef" offset="1"></stop></linearGradient></defs><g id="SvgjsG5090" featurekey="jTU10e-0" transform="matrix(0.7218206574180143,0,0,0.7218206574180143,-1.271125946416831,-9.28044844574792)" fill="url(&quot;#SvgjsLinearGradient5094&quot;)"><path xmlns="http://www.w3.org/2000/svg" fill="url(&quot;#SvgjsLinearGradient5094&quot;)" d="M28.696,37.22c0,2.505-2.036,4.546-4.55,4.546H13.537c-2.51,0-4.55-2.041-4.55-4.546l0,0  c0-2.51,2.041-4.55,4.55-4.55h10.609C26.66,32.67,28.696,34.71,28.696,37.22L28.696,37.22z"></path><path xmlns="http://www.w3.org/2000/svg" fill="url(&quot;#SvgjsLinearGradient5094&quot;)" d="M40.332,53.107c0,2.506-2.036,4.546-4.55,4.546H25.173c-2.509,0-4.55-2.04-4.55-4.546l0,0  c0-2.51,2.041-4.55,4.55-4.55h10.609C38.296,48.558,40.332,50.598,40.332,53.107L40.332,53.107z"></path><path xmlns="http://www.w3.org/2000/svg" fill="url(&quot;#SvgjsLinearGradient5094&quot;)" d="M51.239,68.996c0,2.505-2.036,4.546-4.55,4.546H36.08c-2.509,0-4.55-2.041-4.55-4.546l0,0  c0-2.51,2.041-4.551,4.55-4.551h10.609C49.203,64.445,51.239,66.486,51.239,68.996L51.239,68.996z"></path><path xmlns="http://www.w3.org/2000/svg" fill="url(&quot;#SvgjsLinearGradient5094&quot;)" d="M83.101,12.878H17.026c-0.038,0-0.068-0.021-0.106-0.021H6.311c-2.509,0-4.55,2.041-4.55,4.55  c0,2.505,2.041,4.546,4.55,4.546h10.307h0.302h7.584l23.268,23.574c6.059,6.14,15.973,6.203,22.112,0.145l19.429-19.173  c0.209,0.639,0.35,1.308,0.35,2.015v45.683c0,3.617-2.944,6.562-6.562,6.562H55.624c-0.072-0.005-0.133-0.043-0.209-0.043H44.806  c-2.51,0-4.55,2.041-4.55,4.551c0,2.505,2.041,4.546,4.55,4.546h2.625v0.021h35.67c8.624,0,15.637-7.013,15.637-15.636V28.514  C98.737,19.891,91.725,12.878,83.101,12.878z M63.511,39.213c-2.574,2.543-6.741,2.514-9.28-0.06l-16.979-17.2h43.744L63.511,39.213  z"></path></g><g id="SvgjsG5091" featurekey="cBdhLW-0" transform="matrix(1.8534323607081638,0,0,1.8534323607081638,86.84916489841758,-0.008534924581168113)" fill="#08A6E9"><path d="M4.4 20 l-2.7 0 l0 -14 l2.7 0 l0 14 z M10.02 20 l-2.52 0 l0 -10.6 l2.38 0 l0 1.02 l0.04 0 c0.48 -0.74 1.46 -1.32 2.56 -1.32 c1.12 0 2.2 0.58 2.7 1.4 l0.04 0 c0.54 -0.82 1.58 -1.4 2.76 -1.4 c2.54 0 4.12 1.46 4.12 3.64 l0 7.26 l-2.38 0 l0 -6.72 c0 -1.04 -0.58 -1.78 -1.84 -1.78 c-1.18 0 -1.82 0.68 -1.82 1.64 l0 6.86 l-2.38 0 l0 -6.72 c0 -1.02 -0.66 -1.78 -1.84 -1.78 c-1.2 0 -1.82 0.68 -1.82 1.64 l0 6.86 z M33.02 20 l-2.18 0 l0 -1.02 l-0.04 0 c0 0.02 -0.74 1.32 -2.88 1.32 c-2.56 0 -3.82 -1.38 -3.82 -3.14 c0 -1.84 0.98 -2.66 3.6 -3.3 c1.22 -0.3 1.98 -0.52 2.28 -0.7 s0.46 -0.42 0.46 -0.74 c0 -0.64 -0.6 -1.12 -1.8 -1.12 c-1.42 0 -1.9 0.68 -2.24 1.74 l-2.16 -0.9 c0.5 -1.78 1.98 -3.04 4.36 -3.04 c1.3 0 2.36 0.34 3.18 1.02 s1.24 1.74 1.24 3.16 l0 6.72 z M28.220000000000002 15.66 c-1.34 0.32 -1.62 0.76 -1.62 1.32 c0 0.72 0.52 1.08 1.56 1.08 c1.58 0 2.36 -0.68 2.36 -1.56 l0 -1.84 l-0.04 0 c-0.06 0.1 -0.12 0.2 -0.18 0.26 c-0.1 0.1 -0.8 0.42 -2.08 0.74 z M38.22 13.6 l0 2.18 c0 1.22 0.9 2.18 2.28 2.18 c1.52 0 2.6 -1.16 2.6 -3.26 s-1.06 -3.26 -2.6 -3.26 c-1.38 0 -2.28 0.96 -2.28 2.16 z M38.22 24.5 l-2.6 0 l0 -15.1 l2.48 0 l0 1.02 l0.04 0 c0 -0.02 0.8 -1.3 2.86 -1.32 c1.26 0 2.34 0.5 3.28 1.52 c0.94 1 1.42 2.36 1.42 4.08 c0 1.74 -0.46 3.1 -1.36 4.1 s-2 1.5 -3.3 1.5 c-1.6 0 -2.46 -0.84 -2.7 -1.18 l-0.08 -0.14 l-0.04 0 l0 5.52 z M56.86 20 l-8.86 0 l0 -14 l8.86 0 l0 2.5 l-6.16 0 l0 3.14 l5.6 0 l0 2.4 l-5.6 0 l0 3.46 l6.16 0 l0 2.5 z M61.96 20 l-2.6 0 l0 -10.6 l2.5 0 l0 1.02 l0.04 0 c0.58 -0.74 1.68 -1.32 2.8 -1.32 c2.34 0 3.76 1.48 3.76 3.96 l0 6.94 l-2.6 0 l0 -6.3 c0 -1.46 -0.5 -2.2 -1.86 -2.2 c-1.28 0 -2.04 0.8 -2.04 2.02 l0 6.48 z M77.94 15.780000000000001 l0 -2.18 c0 -1.2 -0.9 -2.16 -2.28 -2.16 c-1.54 0 -2.6 1.16 -2.6 3.26 s1.08 3.26 2.6 3.26 c1.38 0 2.28 -0.96 2.28 -2.18 z M71.22 22.16 l1.94 -1.34 c0.62 1.2 1.32 1.72 2.54 1.72 c1.36 0 2.24 -0.68 2.24 -2.22 l0 -1.34 l-0.04 0 c-0.4 0.72 -1.5 1.32 -2.64 1.32 c-1.36 0 -2.5 -0.5 -3.42 -1.48 c-0.92 -1 -1.38 -2.38 -1.38 -4.12 c0 -1.72 0.48 -3.08 1.42 -4.08 c0.94 -1.02 2.06 -1.52 3.34 -1.52 c1.22 0 2.14 0.44 2.8 1.32 l0.04 0 l0 -1.02 l2.48 0 l0 10.6 c0 1.54 -0.46 2.74 -1.36 3.56 s-2.06 1.24 -3.48 1.24 c-2.22 0 -3.78 -1.04 -4.48 -2.64 z M85.84 20 l-2.6 0 l0 -10.6 l2.6 0 l0 10.6 z M85.84 7.859999999999999 l-2.6 0 l0 -2.46 l2.6 0 l0 2.46 z M91.24000000000001 20 l-2.6 0 l0 -10.6 l2.5 0 l0 1.02 l0.04 0 c0.58 -0.74 1.68 -1.32 2.8 -1.32 c2.34 0 3.76 1.48 3.76 3.96 l0 6.94 l-2.6 0 l0 -6.3 c0 -1.46 -0.5 -2.2 -1.86 -2.2 c-1.28 0 -2.04 0.8 -2.04 2.02 l0 6.48 z M107.32000000000001 16.34 l1.82 1.6 c-1.08 1.58 -2.54 2.36 -4.38 2.36 c-1.48 0 -2.68 -0.5 -3.62 -1.52 s-1.4 -2.38 -1.4 -4.08 s0.46 -3.04 1.38 -4.06 c0.94 -1.02 2.1 -1.54 3.52 -1.54 s2.58 0.52 3.48 1.54 c0.92 1.02 1.38 2.36 1.38 4.06 l0 0.78 l-7.12 0 c0.08 1.62 0.92 2.52 2.34 2.52 c1.2 0 1.9 -0.64 2.6 -1.66 z M102.38000000000001 13.54 l4.6 0 c-0.14 -1.36 -0.96 -2.16 -2.34 -2.16 c-1.28 0 -2.16 0.94 -2.26 2.16 z" fill="#08A6E9"></path></g></svg>